<svg width="800" height="800" viewBox="0 0 800 800" fill="none" xmlns="http://www.w3.org/2000/svg">
<path d="M400 266.667V400L483.333 483.333" stroke="black" stroke-width="50" stroke-linecap="round" stroke-linejoin="round"/>
<path d="M144.592 229.017L119.592 229.143C119.661 242.852 130.757 253.948 144.466 254.017L144.592 229.017ZM229.318 254.443C243.125 254.513 254.374 243.376 254.443 229.569C254.513 215.762 243.376 204.513 229.569 204.444L229.318 254.443ZM169.165 144.04C169.096 130.233 157.847 119.097 144.04 119.166C130.233 119.235 119.097 130.484 119.166 144.291L169.165 144.04ZM127.554 359.497C129.429 345.817 119.859 333.209 106.18 331.334C92.501 329.459 79.8916 339.027 78.0166 352.707L127.554 359.497ZM628.74 171.259C501.4 43.9193 295.624 42.6297 169.127 169.127L204.482 204.482C311.119 97.8453 485.237 98.465 593.387 206.614L628.74 171.259ZM171.259 628.74C298.599 756.08 504.377 757.37 630.873 630.873L595.517 595.517C488.88 702.153 314.764 701.537 206.614 593.387L171.259 628.74ZM630.873 630.873C757.37 504.377 756.08 298.599 628.74 171.259L593.387 206.614C701.537 314.764 702.153 488.88 595.517 595.517L630.873 630.873ZM169.127 169.127L126.914 211.34L162.27 246.695L204.482 204.482L169.127 169.127ZM144.466 254.017L229.318 254.443L229.569 204.444L144.718 204.018L144.466 254.017ZM169.592 228.892L169.165 144.04L119.166 144.291L119.592 229.143L169.592 228.892ZM78.0166 352.707C64.6356 450.33 95.7973 553.28 171.259 628.74L206.614 593.387C142.595 529.367 116.221 442.173 127.554 359.497L78.0166 352.707Z" fill="black"/>
</svg>
